<mxfile host="app.diagrams.net" agent="Mozilla/5.0 (Windows NT 10.0; Win64; x64) AppleWebKit/537.36 (KHTML, like Gecko) Chrome/133.0.0.0 Safari/537.36" version="26.0.16">
  <diagram name="Page-1" id="7V-ebXleQxwOOMAgED6S">
    <mxGraphModel dx="1884" dy="460" grid="1" gridSize="10" guides="1" tooltips="1" connect="1" arrows="1" fold="1" page="1" pageScale="1" pageWidth="850" pageHeight="1100" math="0" shadow="0">
      <root>
        <mxCell id="0" />
        <mxCell id="1" parent="0" />
        <mxCell id="WMnhPfUi33ghGEyn3rcU-1" value="" style="rounded=0;whiteSpace=wrap;html=1;" vertex="1" parent="1">
          <mxGeometry x="80" y="40" width="720" height="680" as="geometry" />
        </mxCell>
        <mxCell id="WMnhPfUi33ghGEyn3rcU-6" style="edgeStyle=orthogonalEdgeStyle;rounded=0;orthogonalLoop=1;jettySize=auto;html=1;exitX=1;exitY=0.3333333333333333;exitDx=0;exitDy=0;exitPerimeter=0;entryX=0;entryY=0.5;entryDx=0;entryDy=0;" edge="1" parent="1" source="WMnhPfUi33ghGEyn3rcU-2" target="WMnhPfUi33ghGEyn3rcU-5">
          <mxGeometry relative="1" as="geometry" />
        </mxCell>
        <mxCell id="WMnhPfUi33ghGEyn3rcU-2" value="Actor" style="shape=umlActor;verticalLabelPosition=bottom;verticalAlign=top;html=1;outlineConnect=0;" vertex="1" parent="1">
          <mxGeometry x="-30" y="260" width="30" height="60" as="geometry" />
        </mxCell>
        <mxCell id="WMnhPfUi33ghGEyn3rcU-5" value="Publish/Update Course" style="ellipse;whiteSpace=wrap;html=1;" vertex="1" parent="1">
          <mxGeometry x="140" y="140" width="120" height="80" as="geometry" />
        </mxCell>
        <mxCell id="WMnhPfUi33ghGEyn3rcU-7" value="Skill Development Platform" style="text;html=1;align=center;verticalAlign=middle;whiteSpace=wrap;rounded=0;" vertex="1" parent="1">
          <mxGeometry x="280" y="50" width="310" height="30" as="geometry" />
        </mxCell>
        <mxCell id="WMnhPfUi33ghGEyn3rcU-8" value="" style="endArrow=none;dashed=1;html=1;rounded=0;entryX=0.333;entryY=0.206;entryDx=0;entryDy=0;entryPerimeter=0;" edge="1" parent="1" source="WMnhPfUi33ghGEyn3rcU-5" target="WMnhPfUi33ghGEyn3rcU-1">
          <mxGeometry width="50" height="50" relative="1" as="geometry">
            <mxPoint x="390" y="270" as="sourcePoint" />
            <mxPoint x="440" y="220" as="targetPoint" />
            <Array as="points">
              <mxPoint x="430" y="180" />
            </Array>
          </mxGeometry>
        </mxCell>
        <mxCell id="WMnhPfUi33ghGEyn3rcU-9" value="" style="endArrow=classic;html=1;rounded=0;" edge="1" parent="1">
          <mxGeometry width="50" height="50" relative="1" as="geometry">
            <mxPoint x="280" y="180" as="sourcePoint" />
            <mxPoint x="260" y="180" as="targetPoint" />
          </mxGeometry>
        </mxCell>
      </root>
    </mxGraphModel>
  </diagram>
</mxfile>
